<?xml version="1.0" encoding="UTF-8" standalone="no"?>
<!-- Created with Inkscape (http://www.inkscape.org/) -->

<svg
   xmlns:dc="http://purl.org/dc/elements/1.1/"
   xmlns:cc="http://creativecommons.org/ns#"
   xmlns:rdf="http://www.w3.org/1999/02/22-rdf-syntax-ns#"
   xmlns:svg="http://www.w3.org/2000/svg"
   xmlns="http://www.w3.org/2000/svg"
   xmlns:sodipodi="http://sodipodi.sourceforge.net/DTD/sodipodi-0.dtd"
   xmlns:inkscape="http://www.inkscape.org/namespaces/inkscape"
   id="svg2"
   version="1.1"
   inkscape:version="0.91 r13725"
   xml:space="preserve"
   width="900"
   height="630"
   viewBox="0 0 900 630"
   sodipodi:docname="fig_sa_coupler_curves.svg"><metadata
     id="metadata8"><rdf:RDF><cc:Work
         rdf:about=""><dc:format>image/svg+xml</dc:format><dc:type
           rdf:resource="http://purl.org/dc/dcmitype/StillImage" /><dc:title></dc:title></cc:Work></rdf:RDF></metadata><defs
     id="defs6"><clipPath
       clipPathUnits="userSpaceOnUse"
       id="clipPath148"><path
         d="m 900,554.398 5580,0 0,3881 -5580,0 0,-3881 z"
         id="path150"
         inkscape:connector-curvature="0" /></clipPath></defs><sodipodi:namedview
     pagecolor="#ffffff"
     bordercolor="#666666"
     borderopacity="1"
     objecttolerance="10"
     gridtolerance="10"
     guidetolerance="10"
     inkscape:pageopacity="0"
     inkscape:pageshadow="2"
     inkscape:window-width="1280"
     inkscape:window-height="679"
     id="namedview4"
     showgrid="false"
     inkscape:zoom="0.74920635"
     inkscape:cx="467.76339"
     inkscape:cy="342.54224"
     inkscape:window-x="0"
     inkscape:window-y="1"
     inkscape:window-maximized="1"
     inkscape:current-layer="g10" /><g
     id="g10"
     inkscape:groupmode="layer"
     inkscape:label="ink_ext_XXXXXX"
     transform="matrix(1.25,0,0,-1.25,0,630)"><path
       inkscape:connector-curvature="0"
       id="path18"
       style="fill:#000000;fill-opacity:1;fill-rule:nonzero;stroke:none"
       d="m 134.811,55.4398 0,-3.5" /><path
       inkscape:connector-curvature="0"
       id="path20"
       style="fill:none;stroke:#000000;stroke-width:0.80000001;stroke-linecap:butt;stroke-linejoin:round;stroke-miterlimit:10;stroke-dasharray:none;stroke-opacity:1"
       d="m 134.811,55.4398 0,-3.5" /><g
       id="g22"><text
         id="text24"
         style="font-variant:normal;font-weight:normal;font-size:10px;font-family:Arial;-inkscape-font-specification:Arial;writing-mode:lr-tb;fill:#000000;fill-opacity:1;fill-rule:nonzero;stroke:none"
         transform="matrix(1,0,0,-1,122.67,40.8461)"><tspan
           id="tspan26"
           sodipodi:role="line"
           y="0"
           x="0 8.3789015 14.741014 17.919914">−0.5</tspan></text>
</g><path
       inkscape:connector-curvature="0"
       id="path28"
       style="fill:#000000;fill-opacity:1;fill-rule:nonzero;stroke:none"
       d="m 212.2,55.4398 0,-3.5" /><path
       inkscape:connector-curvature="0"
       id="path30"
       style="fill:none;stroke:#000000;stroke-width:0.80000001;stroke-linecap:butt;stroke-linejoin:round;stroke-miterlimit:10;stroke-dasharray:none;stroke-opacity:1"
       d="m 212.2,55.4398 0,-3.5" /><g
       id="g32"><text
         id="text34"
         style="font-variant:normal;font-weight:normal;font-size:10px;font-family:Arial;-inkscape-font-specification:Arial;writing-mode:lr-tb;fill:#000000;fill-opacity:1;fill-rule:nonzero;stroke:none"
         transform="matrix(1,0,0,-1,204.246,40.8461)"><tspan
           id="tspan36"
           sodipodi:role="line"
           y="0"
           x="0 6.3620996 9.5410013">0.0</tspan></text>
</g><path
       inkscape:connector-curvature="0"
       id="path38"
       style="fill:#000000;fill-opacity:1;fill-rule:nonzero;stroke:none"
       d="m 289.588,55.4398 0,-3.5" /><path
       inkscape:connector-curvature="0"
       id="path40"
       style="fill:none;stroke:#000000;stroke-width:0.80000001;stroke-linecap:butt;stroke-linejoin:round;stroke-miterlimit:10;stroke-dasharray:none;stroke-opacity:1"
       d="m 289.588,55.4398 0,-3.5" /><g
       id="g42"><text
         id="text44"
         style="font-variant:normal;font-weight:normal;font-size:10px;font-family:Arial;-inkscape-font-specification:Arial;writing-mode:lr-tb;fill:#000000;fill-opacity:1;fill-rule:nonzero;stroke:none"
         transform="matrix(1,0,0,-1,281.635,40.8461)"><tspan
           id="tspan46"
           sodipodi:role="line"
           y="0"
           x="0 6.3624902 9.5410013">0.5</tspan></text>
</g><path
       inkscape:connector-curvature="0"
       id="path48"
       style="fill:#000000;fill-opacity:1;fill-rule:nonzero;stroke:none"
       d="m 366.977,55.4398 0,-3.5" /><path
       inkscape:connector-curvature="0"
       id="path50"
       style="fill:none;stroke:#000000;stroke-width:0.80000001;stroke-linecap:butt;stroke-linejoin:round;stroke-miterlimit:10;stroke-dasharray:none;stroke-opacity:1"
       d="m 366.977,55.4398 0,-3.5" /><g
       id="g52"><text
         id="text54"
         style="font-variant:normal;font-weight:normal;font-size:10px;font-family:Arial;-inkscape-font-specification:Arial;writing-mode:lr-tb;fill:#000000;fill-opacity:1;fill-rule:nonzero;stroke:none"
         transform="matrix(1,0,0,-1,359.024,40.8461)"><tspan
           id="tspan56"
           sodipodi:role="line"
           y="0"
           x="0 6.3624902 9.5410013">1.0</tspan></text>
</g><path
       inkscape:connector-curvature="0"
       id="path58"
       style="fill:#000000;fill-opacity:1;fill-rule:nonzero;stroke:none"
       d="m 444.366,55.4398 0,-3.5" /><path
       inkscape:connector-curvature="0"
       id="path60"
       style="fill:none;stroke:#000000;stroke-width:0.80000001;stroke-linecap:butt;stroke-linejoin:round;stroke-miterlimit:10;stroke-dasharray:none;stroke-opacity:1"
       d="m 444.366,55.4398 0,-3.5" /><g
       id="g62"><text
         id="text64"
         style="font-variant:normal;font-weight:normal;font-size:10px;font-family:Arial;-inkscape-font-specification:Arial;writing-mode:lr-tb;fill:#000000;fill-opacity:1;fill-rule:nonzero;stroke:none"
         transform="matrix(1,0,0,-1,436.413,40.8461)"><tspan
           id="tspan66"
           sodipodi:role="line"
           y="0"
           x="0 6.3620996 9.5410252">1.5</tspan></text>
</g><path
       inkscape:connector-curvature="0"
       id="path68"
       style="fill:#000000;fill-opacity:1;fill-rule:nonzero;stroke:none"
       d="m 521.755,55.4398 0,-3.5" /><path
       inkscape:connector-curvature="0"
       id="path70"
       style="fill:none;stroke:#000000;stroke-width:0.80000001;stroke-linecap:butt;stroke-linejoin:round;stroke-miterlimit:10;stroke-dasharray:none;stroke-opacity:1"
       d="m 521.755,55.4398 0,-3.5" /><g
       id="g72"><text
         id="text74"
         style="font-variant:normal;font-weight:normal;font-size:10px;font-family:Arial;-inkscape-font-specification:Arial;writing-mode:lr-tb;fill:#000000;fill-opacity:1;fill-rule:nonzero;stroke:none"
         transform="matrix(1,0,0,-1,513.802,40.8461)"><tspan
           id="tspan76"
           sodipodi:role="line"
           y="0"
           x="0 6.3620996 9.5410252">2.0</tspan></text>
</g><path
       inkscape:connector-curvature="0"
       id="path78"
       style="fill:#000000;fill-opacity:1;fill-rule:nonzero;stroke:none"
       d="m 599.143,55.4398 0,-3.5" /><path
       inkscape:connector-curvature="0"
       id="path80"
       style="fill:none;stroke:#000000;stroke-width:0.80000001;stroke-linecap:butt;stroke-linejoin:round;stroke-miterlimit:10;stroke-dasharray:none;stroke-opacity:1"
       d="m 599.143,55.4398 0,-3.5" /><g
       id="g82"><text
         id="text84"
         style="font-variant:normal;font-weight:normal;font-size:10px;font-family:Arial;-inkscape-font-specification:Arial;writing-mode:lr-tb;fill:#000000;fill-opacity:1;fill-rule:nonzero;stroke:none"
         transform="matrix(1,0,0,-1,591.19,40.8461)"><tspan
           id="tspan86"
           sodipodi:role="line"
           y="0"
           x="0 6.3624902 9.5410252">2.5</tspan><tspan
           id="tspan88"
           y="13.6719"
           x="-225.011">x</tspan></text>
</g><path
       inkscape:connector-curvature="0"
       id="path90"
       style="fill:#000000;fill-opacity:1;fill-rule:nonzero;stroke:none"
       d="m 90,96.5508 -3.5,0" /><path
       inkscape:connector-curvature="0"
       id="path92"
       style="fill:none;stroke:#000000;stroke-width:0.80000001;stroke-linecap:butt;stroke-linejoin:round;stroke-miterlimit:10;stroke-dasharray:none;stroke-opacity:1"
       d="m 90,96.5508 -3.5,0" /><g
       id="g94"><text
         id="text96"
         style="font-variant:normal;font-weight:normal;font-size:10px;font-family:Arial;-inkscape-font-specification:Arial;writing-mode:lr-tb;fill:#000000;fill-opacity:1;fill-rule:nonzero;stroke:none"
         transform="matrix(1,0,0,-1,67.0938,92.7539)"><tspan
           id="tspan98"
           sodipodi:role="line"
           y="0"
           x="0 6.3625026 9.5410194">0.0</tspan></text>
</g><path
       inkscape:connector-curvature="0"
       id="path100"
       style="fill:#000000;fill-opacity:1;fill-rule:nonzero;stroke:none"
       d="m 90,177.66 -3.5,0" /><path
       inkscape:connector-curvature="0"
       id="path102"
       style="fill:none;stroke:#000000;stroke-width:0.80000001;stroke-linecap:butt;stroke-linejoin:round;stroke-miterlimit:10;stroke-dasharray:none;stroke-opacity:1"
       d="m 90,177.66 -3.5,0" /><g
       id="g104"><text
         id="text106"
         style="font-variant:normal;font-weight:normal;font-size:10px;font-family:Arial;-inkscape-font-specification:Arial;writing-mode:lr-tb;fill:#000000;fill-opacity:1;fill-rule:nonzero;stroke:none"
         transform="matrix(1,0,0,-1,67.0938,173.863)"><tspan
           id="tspan108"
           sodipodi:role="line"
           y="0"
           x="0 6.3625026 9.5410194">0.5</tspan></text>
</g><path
       inkscape:connector-curvature="0"
       id="path110"
       style="fill:#000000;fill-opacity:1;fill-rule:nonzero;stroke:none"
       d="m 90,258.769 -3.5,0" /><path
       inkscape:connector-curvature="0"
       id="path112"
       style="fill:none;stroke:#000000;stroke-width:0.80000001;stroke-linecap:butt;stroke-linejoin:round;stroke-miterlimit:10;stroke-dasharray:none;stroke-opacity:1"
       d="m 90,258.769 -3.5,0" /><g
       id="g114"><text
         id="text116"
         style="font-variant:normal;font-weight:normal;font-size:10px;font-family:Arial;-inkscape-font-specification:Arial;writing-mode:lr-tb;fill:#000000;fill-opacity:1;fill-rule:nonzero;stroke:none"
         transform="matrix(1,0,0,-1,67.0938,254.971)"><tspan
           id="tspan118"
           sodipodi:role="line"
           y="0"
           x="0 6.3625026 9.5410194">1.0</tspan></text>
</g><path
       inkscape:connector-curvature="0"
       id="path120"
       style="fill:#000000;fill-opacity:1;fill-rule:nonzero;stroke:none"
       d="m 90,339.877 -3.5,0" /><path
       inkscape:connector-curvature="0"
       id="path122"
       style="fill:none;stroke:#000000;stroke-width:0.80000001;stroke-linecap:butt;stroke-linejoin:round;stroke-miterlimit:10;stroke-dasharray:none;stroke-opacity:1"
       d="m 90,339.877 -3.5,0" /><g
       id="g124"><text
         id="text126"
         style="font-variant:normal;font-weight:normal;font-size:10px;font-family:Arial;-inkscape-font-specification:Arial;writing-mode:lr-tb;fill:#000000;fill-opacity:1;fill-rule:nonzero;stroke:none"
         transform="matrix(1,0,0,-1,67.0938,336.08)"><tspan
           id="tspan128"
           sodipodi:role="line"
           y="0"
           x="0 6.3625026 9.5410194">1.5</tspan></text>
</g><path
       inkscape:connector-curvature="0"
       id="path130"
       style="fill:#000000;fill-opacity:1;fill-rule:nonzero;stroke:none"
       d="m 90,420.986 -3.5,0" /><path
       inkscape:connector-curvature="0"
       id="path132"
       style="fill:none;stroke:#000000;stroke-width:0.80000001;stroke-linecap:butt;stroke-linejoin:round;stroke-miterlimit:10;stroke-dasharray:none;stroke-opacity:1"
       d="m 90,420.986 -3.5,0" /><g
       id="g134"><text
         id="text136"
         style="font-variant:normal;font-weight:normal;font-size:10px;font-family:Arial;-inkscape-font-specification:Arial;writing-mode:lr-tb;fill:#000000;fill-opacity:1;fill-rule:nonzero;stroke:none"
         transform="matrix(1,0,0,-1,67.0938,417.189)"><tspan
           id="tspan138"
           sodipodi:role="line"
           y="0"
           x="0 6.3625026 9.5410194">2.0</tspan></text>
<text
         id="text140"
         style="font-variant:normal;font-weight:normal;font-size:10px;font-family:Arial;-inkscape-font-specification:Arial;writing-mode:lr-tb;fill:#000000;fill-opacity:1;fill-rule:nonzero;stroke:none"
         transform="matrix(0,1,1,0,60.875,246.652)"><tspan
           id="tspan142"
           y="0"
           x="0">y</tspan></text>
</g><g
       id="g144"
       transform="scale(0.1,0.1)"><g
         clip-path="url(#clipPath148)"
         id="g146"><path
           inkscape:connector-curvature="0"
           id="path152"
           style="fill:none;stroke:#000000;stroke-width:20;stroke-linecap:square;stroke-linejoin:round;stroke-miterlimit:10;stroke-dasharray:none;stroke-opacity:1"
           d="m 3964.03,3899 77.58,-8.81 68.41,-7.83 58.84,-6.12 49.23,-3.86 39.82,-1.24 30.78,1.56 22.22,4.41 14.22,7.15 6.75,9.7 -0.17,12 -6.58,14 -12.52,15.69 -18.01,17.03 -23.11,18.05 -27.82,18.73 -32.18,19.1 -36.2,19.16 -39.9,18.93 -43.26,18.44 -46.33,17.69 -49.07,16.72 -51.51,15.55 -53.62,14.22 -55.43,12.72 -56.93,11.12 -58.12,9.43 -59.01,7.67 -59.62,5.89 -59.95,4.1 -60.03,2.33 -59.87,0.59 -59.48,-1.09 -58.9,-2.71 -58.14,-4.23 -57.23,-5.66 -56.18,-7.01 -55,-8.25 -53.73,-9.38 -52.37,-10.41 -50.94,-11.34 -49.45,-12.16 -47.92,-12.89 -46.34,-13.51 -44.73,-14.06 -43.09,-14.5 -41.44,-14.87 -39.76,-15.14 -38.08,-15.34 -36.38,-15.48 -34.67,-15.53 -32.95,-15.51 -31.23,-15.44 -29.48,-15.29 -27.73,-15.08 -25.97,-14.81 -24.19,-14.49 -22.38,-14.1 -20.58,-13.66 -18.72,-13.15 -16.85,-12.6 -14.96,-12 -13.01,-11.32 -11.04,-10.61 -9.01,-9.84 -6.93,-9 -4.79,-8.13 -2.58,-7.19 -0.31,-6.21 2.06,-5.17 4.52,-4.08 7.07,-2.95 9.75,-1.77 12.56,-0.54 15.51,0.72 18.6,2 21.88,3.32 25.34,4.65 29,5.98 32.89,7.3 37.01,8.57 41.38,9.81 46.02,10.95 50.92,11.96 56.08,12.82 61.49,13.48 67.12,13.85 72.9,13.91 78.74,13.6 84.54,12.84 90.08,11.59 95.16,9.86 99.51,7.64 102.79,5.01 104.73,2.11 105,-0.88 103.45,-3.71 99.98,-6.13 94.68,-7.9 87.79,-8.86" /><path
           inkscape:connector-curvature="0"
           id="path154"
           style="fill:none;stroke:#1a1a1a;stroke-width:20;stroke-linecap:square;stroke-linejoin:round;stroke-miterlimit:10;stroke-dasharray:none;stroke-opacity:1"
           d="M 4183.5521,3817.9516 4285.13,3797.1 l 79.6,-16.39 65.25,-12.23 51.57,-7.34 38.87,-2.2 27.27,2.88 16.79,7.66 7.36,11.97 -1.16,15.76 -8.86,18.97 -15.85,21.62 -22.24,23.74 -28.13,25.3 -33.54,26.38 -38.54,26.99 -43.18,27.17 -47.46,26.93 -51.38,26.31 -54.96,25.35 -58.19,24.07 -61.06,22.5 -63.57,20.69 -65.68,18.68 -67.44,16.48 -68.79,14.19 -69.77,11.79 -70.38,9.37 -70.65,6.94 -70.57,4.53 -70.21,2.22 -69.56,-0.03 -68.68,-2.16 -67.58,-4.16 -66.31,-6.03 -64.88,-7.75 -63.34,-9.34 -61.68,-10.76 -59.97,-12.05 -58.18,-13.2 -56.34,-14.22 -54.48,-15.11 -52.6,-15.87 -50.7,-16.54 -48.81,-17.07 -46.89,-17.51 -45,-17.87 -43.1,-18.12 -41.2,-18.3 -39.33,-18.39 -37.44,-18.4 -35.57,-18.34 -33.7,-18.21 -31.84,-18.01 -29.96,-17.75 -28.09,-17.42 -26.21,-17.04 -24.33,-16.58 -22.42,-16.07 -20.5,-15.5 -18.57,-14.87 -16.59,-14.18 -14.58,-13.42 -12.55,-12.61 -10.45,-11.74 -8.31,-10.79 -6.11,-9.8 -3.83,-8.74 -1.48,-7.6 0.97,-6.41 3.52,-5.15 6.19,-3.82 9,-2.44 11.95,-0.99 15.07,0.53 18.39,2.1 21.92,3.71 25.71,5.38 29.75,7.07 34.11,8.79 38.81,10.49 43.9,12.18 49.39,13.79 55.35,15.3 61.8,16.63 68.76,17.74 76.26,18.51 84.26,18.83 92.69,18.61 101.45,17.67 110.3,15.89 118.89,13.16 126.72,9.41 133.2,4.69 137.52,-0.75 139.02,-6.52 137.1,-12.02 131.57,-16.58 122.66,-19.6 110.99,-20.7"
           sodipodi:nodetypes="cccccccccccccccccccccccccccccccccccccccccccccccccccccccccccccccccccccccccccccccccccccccccccccccccccc" /><path
           inkscape:connector-curvature="0"
           id="path156"
           style="fill:none;stroke:#333333;stroke-width:20;stroke-linecap:square;stroke-linejoin:round;stroke-miterlimit:10;stroke-dasharray:none;stroke-opacity:1"
           d="m 4460.8162,3689.6852 119.0238,-39.3652 85.7,-27.58 65.07,-18.14 46.85,-8.48 31.15,0.64 17.71,8.78 6.19,15.77 -3.78,21.62 -12.52,26.39 -20.3,30.19 -27.3,33.1 -33.72,35.25 -39.62,36.7 -45.13,37.5 -50.28,37.74 -55.07,37.44 -59.56,36.64 -63.68,35.38 -67.48,33.71 -70.87,31.65 -73.86,29.25 -76.4,26.56 -78.49,23.65 -80.09,20.56 -81.2,17.34 -81.84,14.09 -82.02,10.85 -81.78,7.65 -81.15,4.57 -80.17,1.63 -78.9,-1.14 -77.39,-3.72 -75.66,-6.11 -73.78,-8.28 -71.78,-10.24 -69.68,-12.02 -67.53,-13.6 -65.34,-14.98 -63.11,-16.21 -60.89,-17.27 -58.68,-18.18 -56.47,-18.96 -54.28,-19.6 -52.12,-20.12 -49.98,-20.54 -47.87,-20.84 -45.79,-21.07 -43.73,-21.2 -41.7,-21.24 -39.68,-21.22 -37.7,-21.1 -35.71,-20.93 -33.76,-20.68 -31.8,-20.36 -29.86,-19.99 -27.91,-19.54 -25.97,-19.04 -24.01,-18.48 -22.05,-17.84 -20.06,-17.15 -18.06,-16.39 -16.02,-15.57 -13.95,-14.68 -11.82,-13.71 -9.67,-12.7 -7.43,-11.59 -5.13,-10.42 -2.75,-9.17 -0.26,-7.84 2.32,-6.44 5.03,-4.94 7.9,-3.37 10.92,-1.71 14.14,0.03 17.58,1.87 21.26,3.78 25.25,5.77 29.54,7.84 34.25,9.97 39.36,12.13 45,14.32 51.21,16.5 58.08,18.61 65.7,20.59 74.17,22.33 83.58,23.74 94.02,24.63 105.51,24.77 118.04,23.92 131.45,21.72 145.34,17.81 158.98,11.9 171.24,3.8 180.44,-6.23 184.76,-17.37 182.54,-28.15 173.1,-36.7 157.11,-41.38 136.5,-41.42"
           sodipodi:nodetypes="cccccccccccccccccccccccccccccccccccccccccccccccccccccccccccccccccccccccccccccccccccccccccccccccccccc" /><path
           inkscape:connector-curvature="0"
           id="path158"
           style="fill:none;stroke:#4d4d4d;stroke-width:20;stroke-linecap:square;stroke-linejoin:round;stroke-miterlimit:10;stroke-dasharray:none;stroke-opacity:1"
           d="m 4823.06,3463.6019 133.14,-68.9919 78.55,-36.94 50.64,-16.2 29.04,1.4 12.38,15.42 -0.71,26.24 -11.35,34.45 -20.3,40.6 -28.1,45.19 -35.14,48.5 -41.62,50.79 -47.75,52.23 -53.59,52.9 -59.19,52.91 -64.58,52.26 -69.72,51.03 -74.61,49.22 -79.16,46.85 -83.31,43.97 -86.97,40.62 -90.08,36.85 -92.56,32.75 -94.36,28.42 -95.49,23.94 -95.92,19.42 -95.7,14.96 -94.92,10.65 -93.61,6.55 -91.89,2.7 -89.82,-0.83 -87.5,-4.07 -84.99,-7 -82.35,-9.59 -79.63,-11.92 -76.86,-13.97 -74.11,-15.74 -71.36,-17.29 -68.65,-18.64 -65.98,-19.77 -63.38,-20.74 -60.82,-21.55 -58.33,-22.21 -55.9,-22.75 -53.54,-23.16 -51.22,-23.47 -48.97,-23.69 -46.77,-23.81 -44.6,-23.84 -42.49,-23.8 -40.41,-23.7 -38.36,-23.51 -36.35,-23.26 -34.35,-22.95 -32.39,-22.57 -30.42,-22.14 -28.47,-21.64 -26.53,-21.08 -24.58,-20.46 -22.62,-19.78 -20.66,-19.03 -18.67,-18.23 -16.66,-17.35 -14.62,-16.4 -12.54,-15.39 -10.41,-14.3 -8.21,-13.14 -5.96,-11.89 -3.62,-10.56 -1.19,-9.14 1.35,-7.63 4.03,-6.02 6.84,-4.32 9.83,-2.51 13.02,-0.58 16.45,1.44 20.13,3.6 24.13,5.85 28.51,8.24 33.32,10.71 38.63,13.32 44.54,15.99 51.16,18.73 58.63,21.48 67.09,24.19 76.75,26.76 87.82,29.06 100.55,30.85 115.25,31.86 132.16,31.63 151.49,29.54 173.2,24.73 196.69,16.14 220.37,2.71 240.98,-16.08 253.52,-39.09 252.48,-62.48 234.93,-80.17 202.94,-86.56 162.88,-79.95"
           sodipodi:nodetypes="cccccccccccccccccccccccccccccccccccccccccccccccccccccccccccccccccccccccccccccccccccccccccccccccccccc" /><path
           inkscape:connector-curvature="0"
           id="path160"
           style="fill:none;stroke:#666666;stroke-width:20;stroke-linecap:square;stroke-linejoin:round;stroke-miterlimit:10;stroke-dasharray:none;stroke-opacity:1"
           d="m 5600.18,2609.5 -16.85,75.25 -20.44,76.75 -24.3,78.17 -28.44,79.51 -32.91,80.76 -37.71,81.86 -42.87,82.79 -48.42,83.52 -54.37,83.96 -60.72,84.06 -67.44,83.73 -74.52,82.84 -81.84,81.3 -89.26,78.97 -96.55,75.69 -103.44,71.41 -109.55,66.08 -114.52,59.75 -118.08,52.64 -120.02,45 -120.39,37.2 -119.33,29.53 -117.1,22.29 -114,15.62 -110.33,9.63 -106.3,4.33 -102.1,-0.3 -97.88,-4.32 -93.7,-7.76 -89.62,-10.73 -85.71,-13.26 -81.94,-15.41 -78.35,-17.25 -74.93,-18.79 -71.67,-20.1 -68.56,-21.19 -65.62,-22.11 -62.79,-22.85 -60.11,-23.47 -57.54,-23.96 -55.08,-24.33 -52.71,-24.62 -50.44,-24.81 -48.24,-24.94 -46.12,-24.98 -44.07,-24.96 -42.08,-24.89 -40.13,-24.75 -38.23,-24.57 -36.38,-24.32 -34.56,-24.04 -32.76,-23.7 -31,-23.31 -29.25,-22.88 -27.52,-22.4 -25.79,-21.88 -24.08,-21.3 -22.36,-20.68 -20.64,-20 -18.92,-19.27 -17.16,-18.49 -15.41,-17.65 -13.61,-16.75 -11.79,-15.78 -9.93,-14.76 -8.02,-13.67 -6.05,-12.49 -4.02,-11.24 -1.91,-9.92 0.3,-8.5 2.6,-7 5.03,-5.4 7.6,-3.68 10.33,-1.88 13.27,0.06 16.42,2.1 19.83,4.29 23.56,6.6 27.66,9.06 32.18,11.66 37.23,14.4 42.9,17.28 49.3,20.3 56.64,23.42 65.08,26.62 74.91,29.81 86.47,32.91 100.22,35.72 116.76,37.95 136.9,39.11 161.7,38.38 192.55,34.33 231.05,24.57 278.41,4.97 333.06,-30.73 384.79,-88.84 409.31,-166.06 385.11,-240.15 322.49,-288.13" /><path
           inkscape:connector-curvature="0"
           id="path162"
           style="fill:none;stroke:#808080;stroke-width:20;stroke-linecap:square;stroke-linejoin:round;stroke-miterlimit:10;stroke-dasharray:none;stroke-opacity:1"
           d="m 5972.95,1974.54 -147.8,493.14 -88.7,221.16 -79,171.16 -77.83,149.02 -80.85,137.11 -86.64,129.87 -94.52,124.81 -104.04,120.43 -114.62,115.64 -125.41,109.44 -135.15,101.12 -142.35,90.42 -145.97,77.8 -145.81,64.37 -142.56,51.29 -137.29,39.38 -131,29.02 -124.36,20.22 -117.79,12.85 -111.51,6.71 -105.61,1.59 -100.11,-2.68 -95.03,-6.26 -90.32,-9.26 -85.96,-11.79 -81.92,-13.93 -78.16,-15.73 -74.67,-17.26 -71.41,-18.55 -68.35,-19.64 -65.48,-20.57 -62.78,-21.34 -60.24,-21.99 -57.82,-22.52 -55.54,-22.97 -53.37,-23.32 -51.28,-23.61 -49.31,-23.82 -47.4,-23.97 -45.58,-24.08 -43.81,-24.14 -42.11,-24.14 -40.47,-24.11 -38.87,-24.03 -37.31,-23.93 -35.8,-23.79 -34.32,-23.62 -32.87,-23.4 -31.45,-23.17 -30.04,-22.9 -28.67,-22.6 -27.31,-22.27 -25.95,-21.91 -24.63,-21.51 -23.28,-21.09 -21.97,-20.63 -20.63,-20.13 -19.31,-19.61 -17.99,-19.05 -16.65,-18.44 -15.3,-17.8 -13.94,-17.12 -12.57,-16.39 -11.17,-15.61 -9.74,-14.8 -8.29,-13.92 -6.8,-13 -5.26,-12.01 -3.69,-10.98 -2.05,-9.86 -0.36,-8.7 1.41,-7.44 3.27,-6.13 5.22,-4.72 7.27,-3.23 9.46,-1.65 11.8,0.04 14.3,1.82 17,3.73 19.93,5.75 23.13,7.9 26.64,10.19 30.54,12.62 34.88,15.19 39.75,17.93 45.27,20.82 51.58,23.86 58.85,27.03 67.35,30.33 77.37,33.66 89.37,36.98 103.92,40.09 121.94,42.69 144.72,44.27 174.31,43.81 214.08,39.34 270.07,26.5 354.02,-5.38 491.64,-88.21" /><path
           inkscape:connector-curvature="0"
           id="path164"
           style="fill:none;stroke:#999999;stroke-width:20;stroke-linecap:square;stroke-linejoin:round;stroke-miterlimit:10;stroke-dasharray:none;stroke-opacity:1"
           d="m 6058.77,1852.65 -105.43,446.7 -91.6,262.11 -89.12,206.88 -91.2,179.64 -96.47,163.91 -104.46,153.85 -114.89,146.59 -127.46,140.2 -141.29,132.92 -154.63,123.09 -164.79,109.59 -169.29,92.72 -167.57,74.44 -161.22,57.02 -152.45,41.85 -142.99,29.3 -133.75,19.15 -125.14,10.96 -117.3,4.39 -110.2,-0.96 -103.79,-5.31 -98,-8.89 -92.74,-11.84 -87.95,-14.28 -83.58,-16.34 -79.56,-18.04 -75.86,-19.46 -72.43,-20.66 -69.25,-21.66 -66.28,-22.5 -63.51,-23.18 -60.9,-23.77 -58.45,-24.23 -56.14,-24.62 -53.95,-24.93 -51.87,-25.15 -49.88,-25.34 -47.99,-25.46 -46.18,-25.53 -44.43,-25.57 -42.76,-25.56 -41.13,-25.51 -39.57,-25.45 -38.05,-25.33 -36.57,-25.2 -35.14,-25.03 -33.72,-24.84 -32.36,-24.62 -30.99,-24.38 -29.67,-24.1 -28.37,-23.81 -27.07,-23.47 -25.79,-23.13 -24.53,-22.74 -23.27,-22.33 -22.02,-21.89 -20.77,-21.42 -19.52,-20.91 -18.28,-20.37 -17.03,-19.81 -15.76,-19.19 -14.5,-18.54 -13.21,-17.85 -11.92,-17.12 -10.6,-16.34 -9.26,-15.51 -7.89,-14.64 -6.48,-13.7 -5.05,-12.72 -3.56,-11.66 -2.02,-10.54 -0.43,-9.36 1.23,-8.1 2.97,-6.75 4.8,-5.32 6.73,-3.81 8.78,-2.18 10.97,-0.46 13.32,1.39 15.86,3.36 18.62,5.46 21.63,7.72 24.95,10.13 28.64,12.7 32.75,15.48 37.41,18.44 42.69,21.62 48.77,25.02 55.84,28.65 64.16,32.5 74.07,36.57 86.09,40.79 100.94,45.06 119.68,49.18 144.05,52.69 176.96,54.65 223.81,52.96 296.27,42.03 426.35,3.12" /><path
           inkscape:connector-curvature="0"
           id="path166"
           style="fill:none;stroke:#b2b2b2;stroke-width:20;stroke-linecap:square;stroke-linejoin:round;stroke-miterlimit:10;stroke-dasharray:none;stroke-opacity:1"
           d="m 6145.13,1499.04 -75.49,569.42 -89.39,322.06 -95.96,254.28 -104.2,221.62 -115.66,203.75 -131.43,193.72 -152.64,187.72 -179.45,181.92 -207.64,170.06 -224.73,145.22 -220.73,110.32 -202.79,77.09 -182.24,51.58 -163.92,33.18 -148.56,19.9 -135.8,10.07 -125.11,2.64 -116.03,-3.11 -108.2,-7.62 -101.38,-11.24 -95.37,-14.15 -90.02,-16.52 -85.23,-18.46 -80.88,-20.06 -76.94,-21.39 -73.33,-22.48 -70.01,-23.38 -66.93,-24.13 -64.09,-24.74 -61.43,-25.24 -58.95,-25.64 -56.61,-25.98 -54.42,-26.23 -52.33,-26.42 -50.36,-26.56 -48.48,-26.66 -46.69,-26.71 -44.97,-26.73 -43.33,-26.71 -41.74,-26.66 -40.22,-26.59 -38.74,-26.5 -37.3,-26.36 -35.91,-26.21 -34.55,-26.05 -33.23,-25.85 -31.93,-25.64 -30.65,-25.4 -29.41,-25.13 -28.18,-24.86 -26.97,-24.55 -25.77,-24.23 -24.58,-23.87 -23.4,-23.49 -22.23,-23.09 -21.07,-22.66 -19.9,-22.19 -18.75,-21.71 -17.58,-21.18 -16.42,-20.62 -15.25,-20.04 -14.06,-19.41 -12.88,-18.74 -11.67,-18.03 -10.45,-17.28 -9.21,-16.48 -7.95,-15.64 -6.65,-14.73 -5.33,-13.78 -3.96,-12.76 -2.56,-11.67 -1.1,-10.53 0.41,-9.3 1.99,-8 3.66,-6.62 5.39,-5.12 7.25,-3.55 9.21,-1.85 11.32,-0.04 13.59,1.9 16.05,3.98 18.73,6.22 21.67,8.62 24.94,11.22 28.57,14.02 32.69,17.05 37.34,20.32 42.7,23.88 48.93,27.73 56.25,31.91 64.99,36.45 75.6,41.35 88.76,46.62 105.42,52.19 127.23,57.9 156.94,63.32 199.89,67.35 268.07,66.7 397.8,48.91" /><path
           inkscape:connector-curvature="0"
           id="path168"
           style="fill:none;stroke:#cccccc;stroke-width:20;stroke-linecap:square;stroke-linejoin:round;stroke-miterlimit:10;stroke-dasharray:none;stroke-opacity:1"
           d="m 6185.53,1203.5 -27.67,642.94 -76.45,367.75 -94.09,293.83 -109.89,259.01 -129.23,241.97 -156.52,236.29 -198.55,239.44 -263.01,244.83 -317.73,216.69 -290.74,140.39 -237.55,80.79 -198.74,46.84 -171.95,26.4 -152.44,13.03 -137.51,3.67 -125.61,-3.16 -115.83,-8.32 -107.59,-12.31 -100.53,-15.45 -94.38,-17.96 -88.96,-19.97 -84.14,-21.61 -79.79,-22.93 -75.88,-24.02 -72.3,-24.89 -69.02,-25.63 -66,-26.21 -63.2,-26.68 -60.6,-27.05 -58.18,-27.36 -55.9,-27.58 -53.76,-27.76 -51.74,-27.88 -49.83,-27.96 -48,-28 -46.27,-28.01 -44.61,-28 -43.01,-27.95 -41.49,-27.88 -40,-27.78 -38.59,-27.67 -37.2,-27.54 -35.85,-27.39 -34.55,-27.22 -33.27,-27.04 -32.02,-26.82 -30.8,-26.61 -29.6,-26.36 -28.41,-26.1 -27.25,-25.82 -26.1,-25.51 -24.96,-25.19 -23.83,-24.85 -22.71,-24.47 -21.61,-24.08 -20.5,-23.66 -19.39,-23.22 -18.29,-22.73 -17.18,-22.23 -16.09,-21.69 -14.96,-21.12 -13.86,-20.51 -12.72,-19.87 -11.59,-19.17 -10.44,-18.45 -9.26,-17.66 -8.08,-16.85 -6.87,-15.97 -5.62,-15.03 -4.36,-14.05 -3.04,-12.99 -1.69,-11.86 -0.29,-10.67 1.17,-9.39 2.69,-8.02 4.3,-6.57 6,-5 7.78,-3.33 9.71,-1.53 11.76,0.39 13.99,2.47 16.41,4.71 19.07,7.12 22,9.75 25.27,12.59 28.95,15.69 33.14,19.05 37.94,22.76 43.51,26.82 50.09,31.27 57.94,36.2 67.49,41.65 79.36,47.7 94.45,54.39 114.31,61.77 141.54,69.75 181.27,77.95 245.18,84.84 369.78,83.38" /><path
           inkscape:connector-curvature="0"
           id="path170"
           style="fill:none;stroke:#e6e6e6;stroke-width:20;stroke-linecap:square;stroke-linejoin:round;stroke-miterlimit:10;stroke-dasharray:none;stroke-opacity:1"
           d="m 6156.09,730.801 70.27,869.159 -59.24,435.02 -93.99,351.92 -124.11,318.45 -164.68,313.04 -245.2,345.07 -560.14,502.65 -442.95,228.84 -265.86,86.17 -207.44,44.31 -175.17,22.94 -153.72,9.72 -138,0.71 -125.75,-5.79 -115.82,-10.67 -107.54,-14.44 -100.48,-17.38 -94.34,-19.74 -88.96,-21.62 -84.17,-23.14 -79.87,-24.38 -75.99,-25.38 -72.47,-26.19 -69.22,-26.86 -66.25,-27.39 -63.5,-27.82 -60.95,-28.16 -58.55,-28.43 -56.33,-28.64 -54.22,-28.78 -52.25,-28.9 -50.37,-28.96 -48.6,-29 -46.89,-29.01 -45.29,-28.99 -43.72,-28.95 -42.24,-28.89 -40.8,-28.82 -39.41,-28.72 -38.08,-28.62 -36.76,-28.49 -35.5,-28.35 -34.25,-28.19 -33.05,-28.03 -31.86,-27.84 -30.71,-27.64 -29.56,-27.42 -28.43,-27.19 -27.32,-26.94 -26.23,-26.67 -25.15,-26.39 -24.07,-26.07 -23,-25.75 -21.95,-25.4 -20.89,-25.02 -19.84,-24.61 -18.79,-24.2 -17.74,-23.73 -16.7,-23.25 -15.64,-22.74 -14.58,-22.18 -13.53,-21.6 -12.45,-20.97 -11.37,-20.31 -10.29,-19.6 -9.17,-18.85 -8.05,-18.05 -6.91,-17.2 -5.74,-16.29 -4.54,-15.31 -3.31,-14.29 -2.05,-13.18 -0.73,-12 0.62,-10.75 2.04,-9.41 3.53,-7.95 5.09,-6.42 6.75,-4.75 8.51,-2.96 10.4,-1.04 12.43,1.04 14.65,3.29 17.07,5.73 19.74,8.39 22.71,11.28 26.06,14.46 29.85,17.92 34.22,21.77 39.29,26.02 45.26,30.73 52.43,36.01 61.17,41.95 72.04,48.65 85.97,56.3 104.37,65.06 129.8,75.14 167.26,86.71 228.45,99.58 350.49,111.08" /></g></g><path
       inkscape:connector-curvature="0"
       id="path172"
       style="fill:none;stroke:#000000;stroke-width:0.80000001;stroke-linecap:square;stroke-linejoin:miter;stroke-miterlimit:10;stroke-dasharray:none;stroke-opacity:1"
       d="M 90,55.4398 90,443.52" /><path
       inkscape:connector-curvature="0"
       id="path174"
       style="fill:none;stroke:#000000;stroke-width:0.80000001;stroke-linecap:square;stroke-linejoin:miter;stroke-miterlimit:10;stroke-dasharray:none;stroke-opacity:1"
       d="M 648,55.4398 648,443.52" /><path
       inkscape:connector-curvature="0"
       id="path176"
       style="fill:none;stroke:#000000;stroke-width:0.80000001;stroke-linecap:square;stroke-linejoin:miter;stroke-miterlimit:10;stroke-dasharray:none;stroke-opacity:1"
       d="m 90,55.4398 558,0" /><path
       inkscape:connector-curvature="0"
       id="path178"
       style="fill:none;stroke:#000000;stroke-width:0.80000001;stroke-linecap:square;stroke-linejoin:miter;stroke-miterlimit:10;stroke-dasharray:none;stroke-opacity:1"
       d="m 90,443.52 558,0" /><path
       inkscape:connector-curvature="0"
       id="path198"
       style="fill:none;stroke:#1a1a1a;stroke-width:2;stroke-linecap:square;stroke-linejoin:round;stroke-miterlimit:10;stroke-dasharray:none;stroke-opacity:1"
       d="m 99,187.393 20,0" /><g
       id="g200"><text
         id="text202"
         style="font-variant:normal;font-weight:normal;font-size:10px;font-family:Arial;-inkscape-font-specification:Arial;writing-mode:lr-tb;fill:#000000;fill-opacity:1;fill-rule:nonzero;stroke:none"
         transform="matrix(1,0,0,-1,127,183.893)"><tspan
           id="tspan204"
           sodipodi:role="line"
           y="0"
           x="0 3.1984375 9.5605497 12.73945 16.108597 19.287107 25.649609 28.828119 35.190624 41.552734 47.915237 54.277348 60.639851">l1 : 0.350000</tspan></text>
</g><path
       inkscape:connector-curvature="0"
       id="path206"
       style="fill:none;stroke:#333333;stroke-width:2;stroke-linecap:square;stroke-linejoin:round;stroke-miterlimit:10;stroke-dasharray:none;stroke-opacity:1"
       d="m 99,172.721 20,0" /><g
       id="g208"><text
         id="text210"
         style="font-variant:normal;font-weight:normal;font-size:10px;font-family:Arial;-inkscape-font-specification:Arial;writing-mode:lr-tb;fill:#000000;fill-opacity:1;fill-rule:nonzero;stroke:none"
         transform="matrix(1,0,0,-1,127,169.221)"><tspan
           id="tspan212"
           sodipodi:role="line"
           y="0"
           x="0 3.1984375 9.5605497 12.73945 16.108597 19.287107 25.649609 28.828119 35.190624 41.552734 47.915237 54.277348 60.639851">l1 : 0.400000</tspan></text>
</g><path
       inkscape:connector-curvature="0"
       id="path214"
       style="fill:none;stroke:#4d4d4d;stroke-width:2;stroke-linecap:square;stroke-linejoin:round;stroke-miterlimit:10;stroke-dasharray:none;stroke-opacity:1"
       d="m 99,158.049 20,0" /><g
       id="g216"><text
         id="text218"
         style="font-variant:normal;font-weight:normal;font-size:10px;font-family:Arial;-inkscape-font-specification:Arial;writing-mode:lr-tb;fill:#000000;fill-opacity:1;fill-rule:nonzero;stroke:none"
         transform="matrix(1,0,0,-1,127,154.549)"><tspan
           id="tspan220"
           sodipodi:role="line"
           y="0"
           x="0 3.1984375 9.5605497 12.73945 16.108597 19.287107 25.649609 28.828119 35.190624 41.552734 47.915237 54.277348 60.639851">l1 : 0.450000</tspan></text>
</g><path
       inkscape:connector-curvature="0"
       id="path222"
       style="fill:none;stroke:#666666;stroke-width:2;stroke-linecap:square;stroke-linejoin:round;stroke-miterlimit:10;stroke-dasharray:none;stroke-opacity:1"
       d="m 99,143.377 20,0" /><g
       id="g224"><text
         id="text226"
         style="font-variant:normal;font-weight:normal;font-size:10px;font-family:Arial;-inkscape-font-specification:Arial;writing-mode:lr-tb;fill:#000000;fill-opacity:1;fill-rule:nonzero;stroke:none"
         transform="matrix(1,0,0,-1,127,139.877)"><tspan
           id="tspan228"
           sodipodi:role="line"
           y="0"
           x="0 3.1984375 9.5605497 12.73945 16.108597 19.287107 25.649609 28.828119 35.190624 41.552734 47.915237 54.277348 60.639851">l1 : 0.500000</tspan></text>
</g><path
       inkscape:connector-curvature="0"
       id="path230"
       style="fill:none;stroke:#808080;stroke-width:2;stroke-linecap:square;stroke-linejoin:round;stroke-miterlimit:10;stroke-dasharray:none;stroke-opacity:1"
       d="m 99,128.705 20,0" /><g
       id="g232"><text
         id="text234"
         style="font-variant:normal;font-weight:normal;font-size:10px;font-family:Arial;-inkscape-font-specification:Arial;writing-mode:lr-tb;fill:#000000;fill-opacity:1;fill-rule:nonzero;stroke:none"
         transform="matrix(1,0,0,-1,127,125.205)"><tspan
           id="tspan236"
           sodipodi:role="line"
           y="0"
           x="0 3.1984375 9.5605497 12.73945 16.108597 19.287107 25.649609 28.828119 35.190624 41.552734 47.915237 54.277348 60.639851">l1 : 0.550000</tspan></text>
</g><path
       inkscape:connector-curvature="0"
       id="path238"
       style="fill:none;stroke:#999999;stroke-width:2;stroke-linecap:square;stroke-linejoin:round;stroke-miterlimit:10;stroke-dasharray:none;stroke-opacity:1"
       d="m 99,114.034 20,0" /><g
       id="g240"><text
         id="text242"
         style="font-variant:normal;font-weight:normal;font-size:10px;font-family:Arial;-inkscape-font-specification:Arial;writing-mode:lr-tb;fill:#000000;fill-opacity:1;fill-rule:nonzero;stroke:none"
         transform="matrix(1,0,0,-1,127,110.534)"><tspan
           id="tspan244"
           sodipodi:role="line"
           y="0"
           x="0 3.1984375 9.5605497 12.73945 16.108597 19.287107 25.649609 28.828119 35.190624 41.552734 47.915237 54.277348 60.639851">l1 : 0.600000</tspan></text>
</g><path
       inkscape:connector-curvature="0"
       id="path246"
       style="fill:none;stroke:#b2b2b2;stroke-width:2;stroke-linecap:square;stroke-linejoin:round;stroke-miterlimit:10;stroke-dasharray:none;stroke-opacity:1"
       d="m 99,99.3617 20,0" /><g
       id="g248"><text
         id="text250"
         style="font-variant:normal;font-weight:normal;font-size:10px;font-family:Arial;-inkscape-font-specification:Arial;writing-mode:lr-tb;fill:#000000;fill-opacity:1;fill-rule:nonzero;stroke:none"
         transform="matrix(1,0,0,-1,127,95.8617)"><tspan
           id="tspan252"
           sodipodi:role="line"
           y="0"
           x="0 3.1984375 9.5605497 12.73945 16.108597 19.287107 25.649609 28.828119 35.190624 41.552734 47.915237 54.277348 60.639851">l1 : 0.650000</tspan></text>
</g><path
       inkscape:connector-curvature="0"
       id="path254"
       style="fill:none;stroke:#cccccc;stroke-width:2;stroke-linecap:square;stroke-linejoin:round;stroke-miterlimit:10;stroke-dasharray:none;stroke-opacity:1"
       d="m 99,84.6898 20,0" /><g
       id="g256"><text
         id="text258"
         style="font-variant:normal;font-weight:normal;font-size:10px;font-family:Arial;-inkscape-font-specification:Arial;writing-mode:lr-tb;fill:#000000;fill-opacity:1;fill-rule:nonzero;stroke:none"
         transform="matrix(1,0,0,-1,127,81.1898)"><tspan
           id="tspan260"
           sodipodi:role="line"
           y="0"
           x="0 3.1984375 9.5605497 12.73945 16.108597 19.287107 25.649609 28.828119 35.190624 41.552734 47.915237 54.277348 60.639851">l1 : 0.700000</tspan></text>
</g><path
       inkscape:connector-curvature="0"
       id="path262"
       style="fill:none;stroke:#e6e6e6;stroke-width:2;stroke-linecap:square;stroke-linejoin:round;stroke-miterlimit:10;stroke-dasharray:none;stroke-opacity:1"
       d="m 99,70.018 20,0" /><g
       id="g264"><text
         id="text266"
         style="font-variant:normal;font-weight:normal;font-size:10px;font-family:Arial;-inkscape-font-specification:Arial;writing-mode:lr-tb;fill:#000000;fill-opacity:1;fill-rule:nonzero;stroke:none"
         transform="matrix(1,0,0,-1,127,66.518)"><tspan
           id="tspan268"
           sodipodi:role="line"
           y="0"
           x="0 3.1984375 9.5605497 12.73945 16.108597 19.287107 25.649609 28.828119 35.190624 41.552734 47.915237 54.277348 60.639851">l1 : 0.750000</tspan></text>
</g><rect
       style="opacity:1;fill:#ffffff;fill-opacity:1;stroke:none;stroke-width:4;stroke-miterlimit:4;stroke-dasharray:none;stroke-dashoffset:0;stroke-opacity:1"
       id="rect4522"
       width="15.478447"
       height="14.723401"
       x="48.700481"
       y="-255.96066"
       transform="scale(1,-1)"
       ry="3.9160161" /><rect
       style="opacity:1;fill:#ffffff;fill-opacity:1;stroke:none;stroke-width:4;stroke-miterlimit:4;stroke-dasharray:none;stroke-dashoffset:0;stroke-opacity:1"
       id="rect4524"
       width="16.550846"
       height="12.279661"
       x="363.05084"
       y="-34.703369"
       transform="scale(1,-1)"
       ry="3.1328158" /><rect
       style="opacity:1;fill:#ffffff;fill-opacity:1;stroke:none;stroke-width:4;stroke-miterlimit:4;stroke-dasharray:none;stroke-dashoffset:0;stroke-opacity:1"
       id="rect4526"
       width="26.161016"
       height="129.2034"
       x="168.17796"
       y="-193.27119"
       transform="scale(1,-1)"
       ry="2.5062559" /><path
       inkscape:connector-curvature="0"
       id="path188"
       style="fill:none;stroke:#cccccc;stroke-width:0.8267647;stroke-linecap:butt;stroke-linejoin:miter;stroke-miterlimit:10;stroke-dasharray:none;stroke-opacity:1"
       d="m 96.419209,60.353182 74.550461,0 c 1.00364,0 1.50583,0.605361 1.50583,1.815721 l 0,132.292637 c 0,1.21018 -0.50219,1.81573 -1.50583,1.81573 l -74.550461,0 c -1.003784,0 -1.505827,-0.60555 -1.505827,-1.81573 l 0,-132.292637 c 0,-1.21036 0.502043,-1.815721 1.505827,-1.815721 z" /><text
       xml:space="preserve"
       style="font-style:normal;font-weight:normal;font-size:23px;line-height:125%;font-family:'Latin Modern Roman';letter-spacing:0px;word-spacing:0px;fill:#000000;fill-opacity:1;stroke:none;stroke-width:1px;stroke-linecap:butt;stroke-linejoin:miter;stroke-opacity:1;-inkscape-font-specification:'Latin Modern Roman, Normal';font-stretch:normal;font-variant:normal;text-anchor:start;text-align:start;writing-mode:lr;"
       x="355.57626"
       y="-18.152536"
       id="text4529"
       sodipodi:linespacing="125%"
       transform="scale(1,-1)"><tspan
         sodipodi:role="line"
         id="tspan4531"
         x="355.57626"
         y="-18.152536">x</tspan></text>
<text
       xml:space="preserve"
       style="font-style:normal;font-weight:normal;font-size:23px;line-height:125%;font-family:'Latin Modern Roman';letter-spacing:0px;word-spacing:0px;fill:#000000;fill-opacity:1;stroke:none;stroke-width:1px;stroke-linecap:butt;stroke-linejoin:miter;stroke-opacity:1;-inkscape-font-specification:'Latin Modern Roman, Normal';font-stretch:normal;font-variant:normal;text-anchor:start;text-align:start;writing-mode:lr;"
       x="49.118641"
       y="-281.89832"
       id="text4533"
       sodipodi:linespacing="125%"
       transform="scale(1,-1)"><tspan
         sodipodi:role="line"
         id="tspan4535"
         x="49.118641"
         y="-281.89832">y</tspan></text>
<text
       xml:space="preserve"
       style="font-style:normal;font-variant:normal;font-weight:normal;font-stretch:normal;font-size:23px;line-height:125%;font-family:'Latin Modern Roman';-inkscape-font-specification:'Latin Modern Roman, Normal';text-align:start;letter-spacing:0px;word-spacing:0px;writing-mode:lr-tb;text-anchor:start;fill:#000000;fill-opacity:1;stroke:none;stroke-width:1px;stroke-linecap:butt;stroke-linejoin:miter;stroke-opacity:1"
       x="293.64407"
       y="-455.94916"
       id="text4537"
       sodipodi:linespacing="125%"
       transform="scale(1,-1)"><tspan
         sodipodi:role="line"
         id="tspan4539"
         x="293.64407"
         y="-455.94916"
         style="font-size:22px">Coupler Paths</tspan></text>
</g></svg>